# xmcd
#
# Track frame offsets: 
#        150
#        19550
#        53317
#        80237
#        120381
#        146759
#        158579
#        180326
#        200685
#        218132
#        239261
#        264612
#
# Disc length: 3824 seconds
#
# Revision: 0
# Processed by: cddbd v1.5.2PL0 Copyright (c) Steve Scherf et al.
# Submitted via: ExactAudioCopyFreeDBPlugin 1.0
#
DISCID=9b0eee0c
DTITLE=Jessica Born and Tony Osanah - Keep Forgettin´...
DYEAR=2009
DGENRE=Blues
TTITLE0=I Wish
TTITLE1=Summertime
TTITLE2=Amore Verdadero
TTITLE3=Stormy Monday Blues
TTITLE4=Without You
TTITLE5=Hit That Jive Jack
TTITLE6=I Keep Forgettin´
TTITLE7=Cai
TTITLE8=A New Man
TTITLE9=Why Does It Hurt So Bad
TTITLE10=Las Cuentas Del Alma
TTITLE11=Desert Blues
EXTD=
EXTT0=
EXTT1=
EXTT2=
EXTT3=
EXTT4=
EXTT5=
EXTT6=
EXTT7=
EXTT8=
EXTT9=
EXTT10=
EXTT11=
PLAYORDER=
